<svg width="297" height="137" viewBox="0 0 297 137" fill="none" xmlns="http://www.w3.org/2000/svg">
<path d="M171 0H125C116.716 0 110 6.71573 110 15V61C110 69.2843 116.716 76 125 76H171C179.284 76 186 69.2843 186 61V15C186 6.71573 179.284 0 171 0Z" fill="white"/>
<g clip-path="url(#clip0)">
<path d="M166.509 69C165.581 68.3046 165.581 58.0728 139.786 63.3377C131.635 65.4238 125.444 67.2119 124 68.0066C126.373 65.7219 150.31 45.755 130.397 9C130.397 9 137.723 13.9669 145.874 22.4106C147.525 27.7748 148.144 33.5364 147.215 39.0993C146.493 43.3709 144.842 47.4437 142.469 51.1192C139.58 55.5894 139.58 56.5828 135.762 60.2583C135.659 60.3576 135.659 60.3576 135.556 60.457C141.334 57.3775 143.397 57.4768 149.898 56.0861C150.413 55.9868 150.826 55.8874 151.342 55.7881C153.715 55.2914 156.088 54.9934 158.565 54.894C159.803 54.894 161.041 54.894 162.279 54.9934C162.588 54.9934 165.065 55.0927 165.168 55.4901C166.2 59.6622 166.716 64.2318 166.509 69Z" fill="#F10505"/>
<path d="M169.708 56.3839C169.708 55.8872 168.057 55.0925 167.644 54.8938C166.613 54.3971 165.581 53.9998 164.446 53.8011C161.866 53.3044 159.287 53.2051 156.708 53.4038C153.509 53.6024 150.31 54.1985 147.318 54.9932C145.977 55.3905 144.636 55.6885 143.294 56.0859C142.779 56.2846 142.263 56.3839 141.644 56.5826C141.334 56.6819 140.509 56.7812 140.302 56.9799C143.398 53.5031 145.667 49.6289 147.112 45.4567C149.176 39.3971 149.588 33.0395 148.144 26.2846C147.422 22.7084 146.183 19.1323 144.533 15.3574C148.453 18.4369 154.85 24.2978 160.319 31.9468C161.041 37.7084 158.977 43.47 154.541 47.4435C153.922 47.9402 153.406 48.5362 152.787 49.0329C152.477 49.3309 152.065 49.8276 151.652 50.1256C153.199 49.3309 154.747 48.4369 156.398 47.8408C159.906 46.6488 163.724 45.6554 167.335 45.6554C168.676 49.1322 169.502 52.7084 169.708 56.3839Z" fill="#F24405"/>
<path d="M172.7 46.1531C172.081 45.5571 171.152 44.9611 169.501 44.6631C169.192 44.5637 168.779 44.5637 168.367 44.5637C167.954 44.5637 167.644 44.5637 167.232 44.5637C165.787 44.5637 163.93 44.7624 161.66 45.2591C161.454 45.3584 161.144 45.3584 160.938 45.4578C159.184 45.9544 157.946 46.2525 157.017 46.5505C158.049 45.3584 158.874 44.067 159.596 42.7756C160.009 41.9809 160.319 41.1862 160.628 40.3915C161.35 38.3054 161.66 36.12 161.66 33.8352C161.66 33.1399 161.557 32.3452 161.454 31.6498C161.35 30.8551 161.247 30.1598 161.041 29.3651C160.628 27.6763 160.009 25.9876 159.287 24.2988C163.208 27.3783 172.081 35.524 172.7 46.1531Z" fill="#F27405"/>
</g>
<path d="M84.9042 110.624H88.5522C88.4402 109.632 88.1682 108.752 87.7362 107.984C87.3042 107.216 86.7522 106.576 86.0802 106.064C85.4242 105.536 84.6722 105.136 83.8242 104.864C82.9922 104.592 82.1042 104.456 81.1602 104.456C79.8482 104.456 78.6642 104.688 77.6082 105.152C76.5682 105.616 75.6882 106.256 74.9682 107.072C74.2482 107.888 73.6962 108.848 73.3122 109.952C72.9282 111.04 72.7362 112.224 72.7362 113.504C72.7362 114.752 72.9282 115.92 73.3122 117.008C73.6962 118.08 74.2482 119.016 74.9682 119.816C75.6882 120.616 76.5682 121.248 77.6082 121.712C78.6642 122.16 79.8482 122.384 81.1602 122.384C82.2162 122.384 83.1842 122.224 84.0642 121.904C84.9442 121.584 85.7122 121.12 86.3682 120.512C87.0242 119.904 87.5522 119.168 87.9522 118.304C88.3522 117.44 88.6002 116.472 88.6962 115.4H85.0482C84.9042 116.552 84.5042 117.48 83.8482 118.184C83.2082 118.888 82.3122 119.24 81.1602 119.24C80.3122 119.24 79.5922 119.08 79.0002 118.76C78.4082 118.424 77.9282 117.984 77.5602 117.44C77.1922 116.896 76.9202 116.288 76.7442 115.616C76.5842 114.928 76.5042 114.224 76.5042 113.504C76.5042 112.752 76.5842 112.024 76.7442 111.32C76.9202 110.616 77.1922 109.992 77.5602 109.448C77.9282 108.888 78.4082 108.448 79.0002 108.128C79.5922 107.792 80.3122 107.624 81.1602 107.624C81.6242 107.624 82.0642 107.704 82.4802 107.864C82.9122 108.008 83.2962 108.216 83.6322 108.488C83.9682 108.76 84.2482 109.08 84.4722 109.448C84.6962 109.8 84.8402 110.192 84.9042 110.624ZM90.9093 109.592V122H94.3173V116.408C94.3173 115.848 94.3733 115.328 94.4853 114.848C94.5973 114.368 94.7813 113.952 95.0373 113.6C95.3093 113.232 95.6613 112.944 96.0933 112.736C96.5253 112.528 97.0533 112.424 97.6773 112.424C97.8853 112.424 98.1013 112.44 98.3253 112.472C98.5493 112.488 98.7413 112.512 98.9013 112.544V109.376C98.6293 109.296 98.3813 109.256 98.1573 109.256C97.7253 109.256 97.3093 109.32 96.9093 109.448C96.5093 109.576 96.1333 109.76 95.7813 110C95.4293 110.224 95.1173 110.504 94.8453 110.84C94.5733 111.16 94.3573 111.512 94.1973 111.896H94.1493V109.592H90.9093ZM106.357 123.536L111.541 109.592H108.013L105.301 118.088H105.253L102.445 109.592H98.8214L103.165 121.232C103.261 121.472 103.309 121.728 103.309 122C103.309 122.368 103.197 122.704 102.973 123.008C102.765 123.312 102.437 123.488 101.989 123.536C101.653 123.552 101.317 123.544 100.981 123.512C100.645 123.48 100.317 123.448 99.9974 123.416V126.224C100.349 126.256 100.693 126.28 101.029 126.296C101.381 126.328 101.733 126.344 102.085 126.344C103.253 126.344 104.165 126.128 104.821 125.696C105.477 125.264 105.989 124.544 106.357 123.536ZM118.947 119.768C118.403 119.768 117.939 119.656 117.555 119.432C117.171 119.208 116.859 118.92 116.619 118.568C116.395 118.2 116.227 117.776 116.115 117.296C116.019 116.816 115.971 116.328 115.971 115.832C115.971 115.32 116.019 114.824 116.115 114.344C116.211 113.864 116.371 113.44 116.595 113.072C116.835 112.704 117.139 112.408 117.507 112.184C117.891 111.944 118.363 111.824 118.923 111.824C119.467 111.824 119.923 111.944 120.291 112.184C120.675 112.408 120.987 112.712 121.227 113.096C121.467 113.464 121.635 113.888 121.731 114.368C121.843 114.848 121.899 115.336 121.899 115.832C121.899 116.328 121.851 116.816 121.755 117.296C121.659 117.776 121.491 118.2 121.251 118.568C121.027 118.92 120.723 119.208 120.339 119.432C119.971 119.656 119.507 119.768 118.947 119.768ZM112.683 109.592V126.344H116.091V120.464H116.139C116.555 121.072 117.083 121.536 117.723 121.856C118.379 122.16 119.091 122.312 119.859 122.312C120.771 122.312 121.563 122.136 122.235 121.784C122.923 121.432 123.491 120.96 123.939 120.368C124.403 119.776 124.747 119.096 124.971 118.328C125.195 117.56 125.307 116.76 125.307 115.928C125.307 115.048 125.195 114.208 124.971 113.408C124.747 112.592 124.403 111.88 123.939 111.272C123.475 110.664 122.891 110.176 122.187 109.808C121.483 109.44 120.643 109.256 119.667 109.256C118.899 109.256 118.195 109.408 117.555 109.712C116.915 110.016 116.387 110.504 115.971 111.176H115.923V109.592H112.683ZM131.675 109.592V105.872H128.267V109.592H126.203V111.872H128.267V119.192C128.267 119.816 128.371 120.32 128.579 120.704C128.787 121.088 129.067 121.384 129.419 121.592C129.787 121.8 130.203 121.936 130.667 122C131.147 122.08 131.651 122.12 132.179 122.12C132.515 122.12 132.859 122.112 133.211 122.096C133.563 122.08 133.883 122.048 134.171 122V119.36C134.011 119.392 133.843 119.416 133.667 119.432C133.491 119.448 133.307 119.456 133.115 119.456C132.539 119.456 132.155 119.36 131.963 119.168C131.771 118.976 131.675 118.592 131.675 118.016V111.872H134.171V109.592H131.675ZM138.816 115.808C138.816 115.312 138.864 114.824 138.96 114.344C139.056 113.864 139.216 113.44 139.44 113.072C139.68 112.704 139.992 112.408 140.376 112.184C140.76 111.944 141.24 111.824 141.816 111.824C142.392 111.824 142.872 111.944 143.256 112.184C143.656 112.408 143.968 112.704 144.192 113.072C144.432 113.44 144.6 113.864 144.696 114.344C144.792 114.824 144.84 115.312 144.84 115.808C144.84 116.304 144.792 116.792 144.696 117.272C144.6 117.736 144.432 118.16 144.192 118.544C143.968 118.912 143.656 119.208 143.256 119.432C142.872 119.656 142.392 119.768 141.816 119.768C141.24 119.768 140.76 119.656 140.376 119.432C139.992 119.208 139.68 118.912 139.44 118.544C139.216 118.16 139.056 117.736 138.96 117.272C138.864 116.792 138.816 116.304 138.816 115.808ZM135.408 115.808C135.408 116.8 135.56 117.696 135.864 118.496C136.168 119.296 136.6 119.984 137.16 120.56C137.72 121.12 138.392 121.552 139.176 121.856C139.96 122.16 140.84 122.312 141.816 122.312C142.792 122.312 143.672 122.16 144.456 121.856C145.256 121.552 145.936 121.12 146.496 120.56C147.056 119.984 147.488 119.296 147.792 118.496C148.096 117.696 148.248 116.8 148.248 115.808C148.248 114.816 148.096 113.92 147.792 113.12C147.488 112.304 147.056 111.616 146.496 111.056C145.936 110.48 145.256 110.04 144.456 109.736C143.672 109.416 142.792 109.256 141.816 109.256C140.84 109.256 139.96 109.416 139.176 109.736C138.392 110.04 137.72 110.48 137.16 111.056C136.6 111.616 136.168 112.304 135.864 113.12C135.56 113.92 135.408 114.816 135.408 115.808ZM162.248 110.624H165.896C165.784 109.632 165.512 108.752 165.08 107.984C164.648 107.216 164.096 106.576 163.424 106.064C162.768 105.536 162.016 105.136 161.168 104.864C160.336 104.592 159.448 104.456 158.504 104.456C157.192 104.456 156.008 104.688 154.952 105.152C153.912 105.616 153.032 106.256 152.312 107.072C151.592 107.888 151.04 108.848 150.656 109.952C150.272 111.04 150.08 112.224 150.08 113.504C150.08 114.752 150.272 115.92 150.656 117.008C151.04 118.08 151.592 119.016 152.312 119.816C153.032 120.616 153.912 121.248 154.952 121.712C156.008 122.16 157.192 122.384 158.504 122.384C159.56 122.384 160.528 122.224 161.408 121.904C162.288 121.584 163.056 121.12 163.712 120.512C164.368 119.904 164.896 119.168 165.296 118.304C165.696 117.44 165.944 116.472 166.04 115.4H162.392C162.248 116.552 161.848 117.48 161.192 118.184C160.552 118.888 159.656 119.24 158.504 119.24C157.656 119.24 156.936 119.08 156.344 118.76C155.752 118.424 155.272 117.984 154.904 117.44C154.536 116.896 154.264 116.288 154.088 115.616C153.928 114.928 153.848 114.224 153.848 113.504C153.848 112.752 153.928 112.024 154.088 111.32C154.264 110.616 154.536 109.992 154.904 109.448C155.272 108.888 155.752 108.448 156.344 108.128C156.936 107.792 157.656 107.624 158.504 107.624C158.968 107.624 159.408 107.704 159.824 107.864C160.256 108.008 160.64 108.216 160.976 108.488C161.312 108.76 161.592 109.08 161.816 109.448C162.04 109.8 162.184 110.192 162.248 110.624ZM171.277 115.808C171.277 115.312 171.325 114.824 171.421 114.344C171.517 113.864 171.677 113.44 171.901 113.072C172.141 112.704 172.453 112.408 172.837 112.184C173.221 111.944 173.701 111.824 174.277 111.824C174.853 111.824 175.333 111.944 175.717 112.184C176.117 112.408 176.429 112.704 176.653 113.072C176.893 113.44 177.061 113.864 177.157 114.344C177.253 114.824 177.301 115.312 177.301 115.808C177.301 116.304 177.253 116.792 177.157 117.272C177.061 117.736 176.893 118.16 176.653 118.544C176.429 118.912 176.117 119.208 175.717 119.432C175.333 119.656 174.853 119.768 174.277 119.768C173.701 119.768 173.221 119.656 172.837 119.432C172.453 119.208 172.141 118.912 171.901 118.544C171.677 118.16 171.517 117.736 171.421 117.272C171.325 116.792 171.277 116.304 171.277 115.808ZM167.869 115.808C167.869 116.8 168.021 117.696 168.325 118.496C168.629 119.296 169.061 119.984 169.621 120.56C170.181 121.12 170.853 121.552 171.637 121.856C172.421 122.16 173.301 122.312 174.277 122.312C175.253 122.312 176.133 122.16 176.917 121.856C177.717 121.552 178.397 121.12 178.957 120.56C179.517 119.984 179.949 119.296 180.253 118.496C180.557 117.696 180.709 116.8 180.709 115.808C180.709 114.816 180.557 113.92 180.253 113.12C179.949 112.304 179.517 111.616 178.957 111.056C178.397 110.48 177.717 110.04 176.917 109.736C176.133 109.416 175.253 109.256 174.277 109.256C173.301 109.256 172.421 109.416 171.637 109.736C170.853 110.04 170.181 110.48 169.621 111.056C169.061 111.616 168.629 112.304 168.325 113.12C168.021 113.92 167.869 114.816 167.869 115.808ZM194.565 122V109.592H191.157V116.096C191.157 117.36 190.949 118.272 190.533 118.832C190.117 119.376 189.445 119.648 188.517 119.648C187.701 119.648 187.133 119.4 186.813 118.904C186.493 118.392 186.333 117.624 186.333 116.6V109.592H182.925V117.224C182.925 117.992 182.989 118.696 183.117 119.336C183.261 119.96 183.501 120.496 183.837 120.944C184.173 121.376 184.629 121.712 185.205 121.952C185.797 122.192 186.549 122.312 187.461 122.312C188.181 122.312 188.885 122.152 189.573 121.832C190.261 121.512 190.821 120.992 191.253 120.272H191.325V122H194.565ZM197.151 109.592V122H200.559V116.408C200.559 115.848 200.615 115.328 200.727 114.848C200.839 114.368 201.023 113.952 201.279 113.6C201.551 113.232 201.903 112.944 202.335 112.736C202.767 112.528 203.295 112.424 203.919 112.424C204.127 112.424 204.343 112.44 204.567 112.472C204.791 112.488 204.983 112.512 205.143 112.544V109.376C204.871 109.296 204.623 109.256 204.399 109.256C203.967 109.256 203.551 109.32 203.151 109.448C202.751 109.576 202.375 109.76 202.023 110C201.671 110.224 201.359 110.504 201.087 110.84C200.815 111.16 200.599 111.512 200.439 111.896H200.391V109.592H197.151ZM209.12 117.968H205.88C205.912 118.8 206.096 119.496 206.432 120.056C206.784 120.6 207.224 121.04 207.752 121.376C208.296 121.712 208.912 121.952 209.6 122.096C210.288 122.24 210.992 122.312 211.712 122.312C212.416 122.312 213.104 122.24 213.776 122.096C214.464 121.968 215.072 121.736 215.6 121.4C216.128 121.064 216.552 120.624 216.872 120.08C217.208 119.52 217.376 118.832 217.376 118.016C217.376 117.44 217.264 116.96 217.04 116.576C216.816 116.176 216.52 115.848 216.152 115.592C215.784 115.32 215.36 115.104 214.88 114.944C214.416 114.784 213.936 114.648 213.44 114.536C212.96 114.424 212.488 114.32 212.024 114.224C211.56 114.128 211.144 114.024 210.776 113.912C210.424 113.784 210.136 113.624 209.912 113.432C209.688 113.24 209.576 112.992 209.576 112.688C209.576 112.432 209.64 112.232 209.768 112.088C209.896 111.928 210.048 111.808 210.224 111.728C210.416 111.648 210.624 111.6 210.848 111.584C211.072 111.552 211.28 111.536 211.472 111.536C212.08 111.536 212.608 111.656 213.056 111.896C213.504 112.12 213.752 112.56 213.8 113.216H217.04C216.976 112.448 216.776 111.816 216.44 111.32C216.12 110.808 215.712 110.4 215.216 110.096C214.72 109.792 214.152 109.576 213.512 109.448C212.888 109.32 212.24 109.256 211.568 109.256C210.896 109.256 210.24 109.32 209.6 109.448C208.96 109.56 208.384 109.768 207.872 110.072C207.36 110.36 206.944 110.76 206.624 111.272C206.32 111.784 206.168 112.44 206.168 113.24C206.168 113.784 206.28 114.248 206.504 114.632C206.728 115 207.024 115.312 207.392 115.568C207.76 115.808 208.176 116.008 208.64 116.168C209.12 116.312 209.608 116.44 210.104 116.552C211.32 116.808 212.264 117.064 212.936 117.32C213.624 117.576 213.968 117.96 213.968 118.472C213.968 118.776 213.896 119.032 213.752 119.24C213.608 119.432 213.424 119.592 213.2 119.72C212.992 119.832 212.752 119.92 212.48 119.984C212.224 120.032 211.976 120.056 211.736 120.056C211.4 120.056 211.072 120.016 210.752 119.936C210.448 119.856 210.176 119.736 209.936 119.576C209.696 119.4 209.496 119.184 209.336 118.928C209.192 118.656 209.12 118.336 209.12 117.968ZM227.722 114.464H222.178C222.194 114.224 222.242 113.952 222.322 113.648C222.418 113.344 222.57 113.056 222.778 112.784C223.002 112.512 223.29 112.288 223.642 112.112C224.01 111.92 224.466 111.824 225.01 111.824C225.842 111.824 226.458 112.048 226.858 112.496C227.274 112.944 227.562 113.6 227.722 114.464ZM222.178 116.624H231.13C231.194 115.664 231.114 114.744 230.89 113.864C230.666 112.984 230.298 112.2 229.786 111.512C229.29 110.824 228.65 110.28 227.866 109.88C227.082 109.464 226.162 109.256 225.106 109.256C224.162 109.256 223.298 109.424 222.514 109.76C221.746 110.096 221.082 110.56 220.522 111.152C219.962 111.728 219.53 112.416 219.226 113.216C218.922 114.016 218.77 114.88 218.77 115.808C218.77 116.768 218.914 117.648 219.202 118.448C219.506 119.248 219.93 119.936 220.474 120.512C221.018 121.088 221.682 121.536 222.466 121.856C223.25 122.16 224.13 122.312 225.106 122.312C226.514 122.312 227.714 121.992 228.706 121.352C229.698 120.712 230.434 119.648 230.914 118.16H227.914C227.802 118.544 227.498 118.912 227.002 119.264C226.506 119.6 225.914 119.768 225.226 119.768C224.266 119.768 223.53 119.52 223.018 119.024C222.506 118.528 222.226 117.728 222.178 116.624Z" fill="white"/>
<defs>
<clipPath id="clip0">
<rect width="48.6999" height="60" fill="white" transform="translate(124 9)"/>
</clipPath>
</defs>
</svg>
