<svg width="76" height="76" viewBox="0 0 76 76" fill="none" xmlns="http://www.w3.org/2000/svg">
<path d="M61 0H15C6.71573 0 0 6.71573 0 15V61C0 69.2843 6.71573 76 15 76H61C69.2843 76 76 69.2843 76 61V15C76 6.71573 69.2843 0 61 0Z" fill="white"/>
<g clip-path="url(#clip0)">
<path d="M56.5092 69C55.5806 68.3046 55.5806 58.0728 29.7862 63.3377C21.6352 65.4238 15.4445 67.2119 14 68.0066C16.3731 65.7219 40.3103 45.755 20.397 9C20.397 9 27.7226 13.9669 35.8737 22.4106C37.5245 27.7748 38.1436 33.5364 37.215 39.0993C36.4927 43.3709 34.8419 47.4437 32.4688 51.1192C29.5798 55.5894 29.5798 56.5828 25.7623 60.2583C25.6591 60.3576 25.6591 60.3576 25.5559 60.457C31.3339 57.3775 33.3974 57.4768 39.8976 56.0861C40.4135 55.9868 40.8262 55.8874 41.3421 55.7881C43.7152 55.2914 46.0883 54.9934 48.5645 54.894C49.8027 54.894 51.0408 54.894 52.2789 54.9934C52.5885 54.9934 55.0647 55.0927 55.1679 55.4901C56.1997 59.6622 56.7156 64.2318 56.5092 69Z" fill="#F10505"/>
<path d="M59.7079 56.3839C59.7079 55.8872 58.0571 55.0925 57.6444 54.8938C56.6126 54.3971 55.5808 53.9998 54.4459 53.8011C51.8664 53.3044 49.287 53.2051 46.7075 53.4038C43.509 53.6024 40.3105 54.1985 37.3183 54.9932C35.977 55.3905 34.6357 55.6885 33.2944 56.0859C32.7785 56.2846 32.2626 56.3839 31.6436 56.5826C31.334 56.6819 30.5086 56.7812 30.3022 56.9799C33.3976 53.5031 35.6675 49.6289 37.112 45.4567C39.1755 39.3971 39.5882 33.0395 38.1438 26.2846C37.4215 22.7084 36.1834 19.1323 34.5325 15.3574C38.4533 18.4369 44.8503 24.2978 50.3187 31.9468C51.041 37.7084 48.9774 43.47 44.5408 47.4435C43.9217 47.9402 43.4058 48.5362 42.7868 49.0329C42.4772 49.3309 42.0645 49.8276 41.6518 50.1256C43.1995 49.3309 44.7471 48.4369 46.398 47.8408C49.906 46.6488 53.7236 45.6554 57.3348 45.6554C58.6761 49.1322 59.5016 52.7084 59.7079 56.3839Z" fill="#F24405"/>
<path d="M62.7 46.1531C62.0809 45.5571 61.1523 44.9611 59.5015 44.6631C59.1919 44.5637 58.7792 44.5637 58.3665 44.5637C57.9538 44.5637 57.6443 44.5637 57.2316 44.5637C55.7871 44.5637 53.9299 44.7624 51.66 45.2591C51.4536 45.3584 51.1441 45.3584 50.9377 45.4578C49.1837 45.9544 47.9456 46.2525 47.017 46.5505C48.0487 45.3584 48.8742 44.067 49.5964 42.7756C50.0091 41.9809 50.3187 41.1862 50.6282 40.3915C51.3504 38.3054 51.66 36.12 51.66 33.8352C51.66 33.1399 51.5568 32.3452 51.4536 31.6498C51.3504 30.8551 51.2473 30.1598 51.0409 29.3651C50.6282 27.6763 50.0091 25.9876 49.2869 24.2988C53.2076 27.3783 62.0809 35.524 62.7 46.1531Z" fill="#F27405"/>
</g>
<defs>
<clipPath id="clip0">
<rect width="48.6999" height="60" fill="white" transform="translate(14 9)"/>
</clipPath>
</defs>
</svg>
